<svg xmlns="http://www.w3.org/2000/svg" width="45" height="31.5" viewBox="0 0 45 31.5">
  <path id="Icon_awesome-shuttle-van" data-name="Icon awesome-shuttle-van" d="M44.218,14.811,34.762,3.464A3.376,3.376,0,0,0,32.169,2.25H2.25A2.25,2.25,0,0,0,0,4.5V24.75A2.25,2.25,0,0,0,2.25,27H4.5A6.75,6.75,0,0,0,18,27h9a6.75,6.75,0,0,0,13.5,0h2.25A2.25,2.25,0,0,0,45,24.75V16.972a3.379,3.379,0,0,0-.782-2.161ZM4.5,13.5V6.75h6.75V13.5Zm6.75,16.875A3.375,3.375,0,1,1,14.625,27,3.375,3.375,0,0,1,11.25,30.375ZM22.5,13.5H15.75V6.75H22.5ZM33.75,30.375A3.375,3.375,0,1,1,37.125,27,3.375,3.375,0,0,1,33.75,30.375ZM27,13.5V6.75h4.642l5.625,6.75Z" transform="translate(0 -2.25)" fill="#fff"/>
</svg>
